HIERARCHY
ROOT pelvis
{
  OFFSET 0 100 0
  CHANNELS 6 Xposition Yposition Zposition Zrotation Xrotation Yrotation
  JOINT pelvis_right_femur
  {
    OFFSET -10.78128 -3.44521 -0.5502486
    CHANNELS 3 Zrotation Xrotation Yrotation
    JOINT right_femur_tibia
    {
      OFFSET -0.8047443 -44.0398 -0.1307829
      CHANNELS 3 Zrotation Xrotation Yrotation
      JOINT right_tibia_foot
      {
        OFFSET 3.006224 -47.83518 -5
        CHANNELS 3 Zrotation Xrotation Yrotation
        End Site
        {
          OFFSET 0 -5 15
        }
      }
    }
  }
  JOINT pelvis_left_femur
  {
    OFFSET 10.78128 -3.44521 -0.5502486
    CHANNELS 3 Zrotation Xrotation Yrotation
    JOINT left_femur_tibia
    {
      OFFSET 0.8047443 -44.0398 -0.1307829
      CHANNELS 3 Zrotation Xrotation Yrotation
      JOINT left_tibia_foot
      {
        OFFSET -4.370144 -48.10324 -4.275266
        CHANNELS 3 Zrotation Xrotation Yrotation
        End Site
        {
          OFFSET 0 -5 15
        }
      }
    }
  }
  JOINT pelvis_spine1
  {
    OFFSET 0 6.468898 -3.129235
    CHANNELS 3 Zrotation Xrotation Yrotation
    JOINT spine1
    {
      OFFSET 0 23.15396 4.99043
      CHANNELS 3 Zrotation Xrotation Yrotation
      JOINT spine2
      {
        OFFSET 0 20.79997 -5.064912
        CHANNELS 3 Zrotation Xrotation Yrotation
        JOINT neck
        {
          OFFSET 0 14.38658 9.616178
          CHANNELS 3 Zrotation Xrotation Yrotation
          End Site
          {
            OFFSET 0 20 0
          }
        }
      }
      JOINT right_manubrium
      {
        OFFSET -5.722621 16.35077 3.967754
        CHANNELS 3 Zrotation Xrotation Yrotation
        JOINT right_clavicle
        {
          OFFSET -13.16364 1.694482 -4.693211
          CHANNELS 3 Zrotation Xrotation Yrotation
          JOINT right_humerus
          {
            OFFSET -28.5034 -0.3100689 -2.792744
            CHANNELS 3 Zrotation Xrotation Yrotation
            JOINT right_radius
            {
              OFFSET -25.15693 0.02248979 -1.271978
              CHANNELS 3 Zrotation Xrotation Yrotation
              End Site
              {
                OFFSET -15 0 0
              }
            }
          }
        }
      }
      JOINT left_manubrium
      {
        OFFSET 5.722621 16.35077 3.967754
        CHANNELS 3 Zrotation Xrotation Yrotation
        JOINT left_clavicle
        {
          OFFSET 13.16364 1.694482 -4.693211
          CHANNELS 3 Zrotation Xrotation Yrotation
          JOINT left_humerus
          {
            OFFSET 29.39168 -1.063119 -2.237045
            CHANNELS 3 Zrotation Xrotation Yrotation
            JOINT left_radius
            {
              OFFSET 24.59957 -0.9528479 0.9047498
              CHANNELS 3 Zrotation Xrotation Yrotation
              End Site
              {
                OFFSET 15 -0 -0
              }
            }
          }
        }
      }
    }
  }
}
MOTION
Frames: 9
Frame Time: 0.0416666666667
8.691775 97.48946 2755.078 -2.892146 -10.82333 -18.06877 -0.6980302 -0.5338907 -2.537194 -0 51.72342 -0 -19.2342 9.352353 3.199064 -5.142123 7.469625 -17.68727 -0 13.07563 -0 -3.605026 -15.32298 20.06838 0.5294855 -1.165833 4.714194 -0.6225256 12.97402 -5.9405 3.118802 22.19048 1.83868 -0.4284949 -18.51921 6.493246 -4.746221 -22.51278 9.61288 95.83168 19.44552 -16.49197 -0 0 13.83055 -18.35875 11.037 10.11339 2.50962 -23.10785 -6.89718 -85.66862 18.50048 18.7242 0 0 -23.93102 4.707789 13.84855 10.24786
7.88856 97.91506 2758.635 -2.726012 -9.660599 -17.59415 0.06044273 -6.045415 -2.158401 -0 45.8127 -0 -16.92279 4.778473 1.35536 -4.905437 9.817466 -17.87065 -0 10.95557 -0 -3.86524 -17.3091 19.5052 0.6006596 -1.476559 4.42036 -0.5199715 13.05466 -6.291976 3.147324 22.19765 2.12384 -0.1258865 -18.90936 6.594156 -4.970689 -21.71753 9.759838 97.16459 19.46575 -18.60622 -0 0 11.4398 -18.69835 10.40513 9.638141 2.98204 -24.55464 -7.003693 -84.32042 17.63776 16.03931 0 0 -26.93873 5.787113 14.16738 8.942826
7.107528 97.83793 2761.987 -2.285105 -8.183471 -17.24186 0.6501435 -10.77365 -1.908466 -0 39.25679 -0 -14.72131 0.9660208 0.171848 -4.982044 11.28839 -17.79186 -0 9.19043 -0 -3.214651 -18.87147 19.21227 0.6925967 -1.881315 4.220328 -0.3779836 13.14596 -6.598057 3.100115 22.15304 2.488291 0.1764684 -19.43683 6.703124 -5.246629 -21.14754 9.965272 98.39812 19.30105 -20.59426 -0 0 9.306903 -19.19128 9.761485 9.388178 3.477092 -25.96452 -7.084691 -83.29222 16.65011 13.86984 0 0 -29.89921 6.802461 14.28971 7.700696
6.327592 97.3809 2765.264 -1.768204 -6.587997 -16.99645 1.177807 -14.99877 -1.665289 -0 33.29924 -0 -12.88554 -1.583819 -0.4469373 -5.21123 12.21212 -17.49922 -0 8.001087 -0 -1.859512 -19.99286 19.1867 0.7944272 -2.33514 4.111532 -0.2179225 13.24475 -6.84639 2.992507 22.07458 2.892245 0.4569404 -20.02634 6.811832 -5.541047 -20.79162 10.20643 99.47609 19.00277 -22.36601 -0 0 7.512754 -19.75528 9.137559 9.323635 3.947997 -27.25233 -7.157197 -82.55872 15.63723 12.23951 0 0 -32.68492 7.69758 14.23871 6.592924
5.528018 96.64521 2768.572 -1.268906 -5.019988 -16.82324 1.68925 -18.87026 -1.457382 -0 28.02105 -0 -11.43676 -2.989458 -0.6882245 -5.496824 12.85796 -17.04509 -0 7.370586 -0 -0.1166383 -20.78823 19.32466 0.8945944 -2.785962 4.073686 -0.06301628 13.33743 -7.033952 2.854329 21.98066 3.285217 0.6944333 -20.6026 6.913476 -5.828938 -20.6028 10.4503 100.3781 18.65633 -23.86688 -0 0 6.082746 -20.30501 8.556697 9.37791 4.36265 -28.35631 -7.220694 -82.04733 14.67915 11.0699 0 0 -35.19453 8.444094 14.0656 5.656424
4.682886 95.70706 2772.009 -0.8186819 -3.554106 -16.68023 2.194322 -22.46187 -1.341019 -0 23.23684 -0 -10.35252 -3.433876 -0.676216 -5.793952 13.40608 -16.45189 -0 7.287788 -0 1.78239 -21.33898 19.50726 0.9824195 -3.18958 4.079161 0.07021525 13.40916 -7.165118 2.715839 21.88794 3.626549 0.8774797 -21.11029 7.003433 -6.091168 -20.52213 10.66683 101.1029 18.33808 -25.07352 -0 0 4.997134 -20.77877 8.038838 9.486224 4.706579 -29.24437 -7.266198 -81.68719 13.83759 10.24723 0 0 -37.34255 9.035287 13.82977 4.902761
3.762112 94.63558 2775.671 -0.4387225 -2.226043 -16.52499 2.712589 -25.76129 -1.310391 -0 18.91509 -0 -9.615842 -3.080408 -0.4947933 -6.069423 13.96344 -15.75129 -0 7.813635 -0 3.643655 -21.65668 19.62831 1.052107 -3.515915 4.104684 0.172243 13.45589 -7.249026 2.599164 21.80715 3.891212 1.004937 -21.5153 7.076608 -6.311753 -20.5024 10.83757 101.655 18.09327 -25.98111 -0 0 4.222486 -21.14599 7.609303 9.601835 4.973303 -29.90885 -7.289718 -81.43278 13.15424 9.683437 0 0 -39.05489 9.474666 13.58867 4.333403
2.733504 93.5111 2779.649 -0.1658973 -1.059573 -16.31809 3.302514 -28.66742 -1.284278 -0 15.24212 -0 -9.221692 -2.094641 -0.2135419 -6.279659 14.57335 -14.98574 -0 9.088185 -0 5.268735 -21.67767 19.58479 1.104082 -3.748206 4.136967 0.2380532 13.48914 -7.297201 2.516002 21.74253 4.067546 1.082726 -21.7973 7.125581 -6.475544 -20.51812 10.9572 102.0366 17.93137 -26.59146 -0 0 3.735103 -21.40212 7.302213 9.699097 5.154923 -30.35613 -7.299968 -81.26783 12.65441 9.342646 0 0 -40.26316 9.76576 13.39485 3.951678
1.567337 92.44012 2784.025 -0.06676817 -0.08112214 -16.03022 4.077376 -30.98629 -1.104019 -0 12.61862 -0 -9.171838 -0.7023295 0.09093126 -6.357083 15.20114 -14.20551 -0 11.3236 -0 6.42429 -21.26354 19.26378 1.143353 -3.879408 4.173048 0.2650968 13.53341 -7.321287 2.468837 21.69381 4.152937 1.119998 -21.94262 7.140525 -6.5668 -20.56535 11.03072 102.2436 17.83261 -26.90405 -0 0 3.531204 -21.55914 7.158836 9.770412 5.23772 -30.59648 -7.318641 -81.20069 12.35396 9.241681 0 0 -40.8988 9.906302 13.29417 3.76884
